<svg id="Component_53_2" data-name="Component 53 – 2" xmlns="http://www.w3.org/2000/svg" width="25" height="25" viewBox="0 0 25 25">
  <g id="Group_1714" data-name="Group 1714">
    <g id="Rectangle_304" data-name="Rectangle 304" fill="none" stroke="#323232" stroke-width="1.5">
      <rect width="25" height="25" rx="12.5" stroke="none"/>
      <rect x="0.75" y="0.75" width="23.5" height="23.5" rx="11.75" fill="none"/>
    </g>
  </g>
  <path id="Icon_ionic-ios-arrow-round-forward" data-name="Icon ionic-ios-arrow-round-forward" d="M14.881,11.392a.5.5,0,0,0,0,.7l2.32,2.324H8.367a.5.5,0,0,0,0,.992h8.826l-2.32,2.324a.5.5,0,0,0,0,.7.494.494,0,0,0,.7,0l3.144-3.167h0a.557.557,0,0,0,.1-.156.473.473,0,0,0,.038-.191.5.5,0,0,0-.141-.347L15.576,11.4A.486.486,0,0,0,14.881,11.392Z" transform="translate(-0.875 -2.252)" fill="#323232"/>
</svg>
