<svg xmlns="http://www.w3.org/2000/svg" width="15.881" height="12.706" viewBox="0 0 15.881 12.706">
  <path id="Icon_awesome-user-cog" data-name="Icon awesome-user-cog" d="M15.15,9.264a2.911,2.911,0,0,0,0-1.057l.64-.37a.18.18,0,0,0,.082-.211A3.724,3.724,0,0,0,15.048,6.2a.181.181,0,0,0-.223-.035l-.64.37a2.914,2.914,0,0,0-.916-.529v-.74a.181.181,0,0,0-.141-.176,3.744,3.744,0,0,0-1.643,0,.181.181,0,0,0-.141.176v.74a2.914,2.914,0,0,0-.916.529l-.64-.37a.181.181,0,0,0-.223.035A3.724,3.724,0,0,0,8.74,7.626a.183.183,0,0,0,.082.211l.64.37a2.911,2.911,0,0,0,0,1.057l-.64.37a.18.18,0,0,0-.082.211,3.743,3.743,0,0,0,.824,1.424.181.181,0,0,0,.223.035l.64-.37a2.914,2.914,0,0,0,.916.529v.74a.181.181,0,0,0,.141.176,3.744,3.744,0,0,0,1.643,0,.181.181,0,0,0,.141-.176v-.74a2.914,2.914,0,0,0,.916-.529l.64.37a.181.181,0,0,0,.223-.035,3.724,3.724,0,0,0,.824-1.424.183.183,0,0,0-.082-.211Zm-2.841.675a1.2,1.2,0,1,1,1.2-1.2A1.2,1.2,0,0,1,12.309,9.939ZM5.559,6.353A3.176,3.176,0,1,0,2.382,3.176,3.176,3.176,0,0,0,5.559,6.353Zm4.993,5.621c-.057-.03-.114-.065-.169-.1l-.2.114a.974.974,0,0,1-1.2-.181,4.525,4.525,0,0,1-1-1.727A.971.971,0,0,1,8.43,8.949l.2-.114q0-.1,0-.194l-.2-.114a.969.969,0,0,1-.444-1.134c.022-.072.055-.144.079-.216-.094-.007-.186-.03-.283-.03H7.368a4.32,4.32,0,0,1-3.618,0H3.335A3.336,3.336,0,0,0,0,10.482v1.032a1.191,1.191,0,0,0,1.191,1.191H9.926a1.19,1.19,0,0,0,.675-.211.966.966,0,0,1-.05-.293Z" fill="#e90707"/>
</svg>
