<svg xmlns="http://www.w3.org/2000/svg" width="29" height="29" style=""><rect id="backgroundrect" width="100%" height="100%" x="0" y="0" fill="none" stroke="none"/>
  
<g class="currentLayer" style=""><title>Layer 1</title><g id="Icon_feather-headphones" data-name="Icon feather-headphones" class="selected" stroke="#ffffff" stroke-opacity="1">
    <path id="Path_2187" data-name="Path 2187" d="M1,23.5 V14.5 a13.5,13.5 0 1 1 27,0 v9 " fill="none" stroke="#ffffff" stroke-linecap="round" stroke-linejoin="round" stroke-width="2" stroke-opacity="1"/>
    <path id="Path_2188" data-name="Path 2188" d="M28,25 a3,3 0 0 1 -3,3 H23.5 a3,3 0 0 1 -3,-3 V20.5 a3,3 0 0 1 3,-3 h4.5 zm-27,0 a3,3 0 0 0 3,3 H5.5 a3,3 0 0 0 3,-3 V20.5 a3,3 0 0 0 -3,-3 H1 z" fill="none" stroke="#ffffff" stroke-linecap="round" stroke-linejoin="round" stroke-width="2" stroke-opacity="1"/>
  </g></g></svg>