<svg xmlns="http://www.w3.org/2000/svg" width="12" height="12"><rect id="backgroundrect" width="100%" height="100%" x="0" y="0" fill="none" stroke="none"/>
  
<g class="currentLayer" style=""><title>Layer 1</title><path id="Icon_material-phone-in-talk" data-name="Icon material-phone-in-talk" d="M11.333,8.333 a7.574,7.574 0 0 1 -2.38,-0.38000000000000006 a0.6800000000000002,0.6800000000000002 0 0 0 -0.6800000000000002,0.16000000000000003 L6.807,9.58 A10.03,10.03 0 0 1 2.4130000000000003,5.186999999999999 L3.880000000000001,3.712999999999999 a0.6400000000000001,0.6400000000000001 0 0 0 0.16700000000000004,-0.6670000000000001 a7.574,7.574 0 0 1 -0.38000000000000006,-2.38 A0.6690000000000002,0.6690000000000002 0 0 0 3,0 H0.6669999999999998 a0.6690000000000002,0.6690000000000002 0 0 0 -0.6670000000000001,0.6670000000000001 A11.332,11.332 0 0 0 11.333,12 a0.6690000000000002,0.6690000000000002 0 0 0 0.6670000000000001,-0.6670000000000001 V9 A0.6690000000000002,0.6690000000000002 0 0 0 11.333,8.333 zM10.667,6 H12 a6,6 0 0 0 -6,-6 V1.3330000000000002 A4.663,4.663 0 0 1 10.667,6 zm-2.6670000000000003,0 h1.3330000000000002 A3.335,3.335 0 0 0 6,2.667 V4 A2,2 0 0 1 8,6 z" fill="#ffffff" class="selected" fill-opacity="1"/></g></svg>