<svg xmlns="http://www.w3.org/2000/svg" width="19.956" height="18.433" style=""><rect id="backgroundrect" width="100%" height="100%" x="0" y="0" fill="none" stroke="none"/>
  
<g class="currentLayer" style=""><title>Layer 1</title><g id="Icon_ionic-ios-cart" data-name="Icon ionic-ios-cart" class="selected" fill-opacity="1" fill="#fd8100">
    <path id="Path_9235" data-name="Path 9235" d="M6.522000018119812,17.281000186920167 a1.1520000000000001,1.1520000000000001 0 1 1 -1.1520000000000001,-1.1520000000000001 a1.1520000000000001,1.1520000000000001 0 0 1 1.1520000000000001,1.1520000000000001 z" fill="#fd8100"/>
    <path id="Path_9236" data-name="Path 9236" d="M17.29500005340576,17.281000186920167 A1.1520000000000001,1.1520000000000001 0 1 1 16.14400005340576,16.129000186920166 a1.1520000000000001,1.1520000000000001 0 0 1 1.1520000000000001,1.1520000000000001 z" fill="#fd8100"/>
    <path id="Path_9237" data-name="Path 9237" d="M19.949000030517578,3.277999969482422 a0.28200000000000003,0.28200000000000003 0 0 0 -0.25,-0.2 L4.070000030517578,1.5639999694824223 a0.48100000000000004,0.48100000000000004 0 0 1 -0.36000000000000004,-0.22600000000000003 a4.8870000000000005,4.8870000000000005 0 0 0 -0.5850000000000001,-0.8930000000000001 c-0.37000000000000005,-0.451 -1.065,-0.43700000000000006 -2.342,-0.44600000000000006 a0.7000000000000001,0.7000000000000001 0 0 0 -0.782,0.6770000000000002 a0.6860000000000002,0.6860000000000002 0 0 0 0.7490000000000001,0.6770000000000002 a6.376,6.376 0 0 1 1.248,0.09100000000000003 c0.22600000000000003,0.06700000000000002 0.40800000000000003,0.43700000000000006 0.47500000000000003,0.7580000000000001 a0.018000000000000002,0.018000000000000002 0 0 0 0,0.014000000000000002 c0.010000000000000002,0.05800000000000001 0.1,0.48900000000000005 0.1,0.49400000000000005 l1.92,10.155 a3.732,3.732 0 0 0 0.7000000000000001,1.713 a1.915,1.915 0 0 0 1.5790000000000002,0.777 H18.118000030517578 a0.6820000000000002,0.6820000000000002 0 0 0 0.6910000000000002,-0.6430000000000001 a0.6690000000000002,0.6690000000000002 0 0 0 -0.6720000000000002,-0.7000000000000001 H6.7570000305175775 a0.558,0.558 0 0 1 -0.4,-0.134 a2.153,2.153 0 0 1 -0.552,-1.248 l-0.20600000000000002,-1.137 A0.026000000000000006,0.026000000000000006 0 0 1 5.618000030517578,11.464999969482422 L18.946000030517578,9.206999969482421 a0.28,0.28 0 0 0 0.23500000000000001,-0.25 L19.949000030517578,3.4069999694824222 A0.274,0.274 0 0 0 19.949000030517578,3.277999969482422 z" fill="#fd8100"/>
  </g></g></svg>