<svg xmlns="http://www.w3.org/2000/svg" width="35" height="35"><rect id="backgroundrect" width="100%" height="100%" x="0" y="0" fill="none" stroke="none"/>
  
<g class="currentLayer" style=""><title>Layer 1</title><g id="Icon_feather-settings" data-name="Icon feather-settings" class="selected" stroke="#ffffff" stroke-opacity="1">
    <path id="Path_2185" data-name="Path 2185" d="M22,17.5 A4.5,4.5 0 1 1 17.5,13 A4.5,4.5 0 0 1 22,17.5 z" fill="none" stroke="#ffffff" stroke-linecap="round" stroke-linejoin="round" stroke-width="2" stroke-opacity="1"/>
    <path id="Path_2186" data-name="Path 2186" d="M28.6,22 a2.475,2.475 0 0 0 0.4950000000000001,2.73 l0.09000000000000004,0.09000000000000004 a3,3 0 1 1 -4.245,4.245 l-0.09000000000000004,-0.09000000000000004 a2.5,2.5 0 0 0 -4.23,1.77 V31 a3,3 0 1 1 -6,0 v-0.135 A2.475,2.475 0 0 0 13,28.6 a2.475,2.475 0 0 0 -2.73,0.4950000000000001 l-0.09000000000000004,0.09000000000000004 A3,3 0 1 1 5.9350000000000005,24.94 l0.09000000000000004,-0.09000000000000004 a2.5,2.5 0 0 0 -1.77,-4.23 H4 a3,3 0 1 1 0,-6 h0.135 A2.475,2.475 0 0 0 6.4,13 a2.475,2.475 0 0 0 -0.5,-2.73 l-0.09000000000000004,-0.09000000000000004 A3,3 0 1 1 10.06,5.9350000000000005 l0.09000000000000004,0.09000000000000004 a2.475,2.475 0 0 0 2.73,0.4950000000000001 h0.12000000000000002 A2.475,2.475 0 0 0 14.5,4.255 V4 a3,3 0 0 1 6,0 v0.135 a2.5,2.5 0 0 0 4.23,1.77 l0.09000000000000004,-0.09000000000000004 a3,3 0 1 1 4.245,4.245 l-0.09000000000000004,0.09000000000000004 a2.475,2.475 0 0 0 -0.5,2.73 v0.12000000000000002 A2.475,2.475 0 0 0 30.745000000000005,14.5 H31 a3,3 0 0 1 0,6 h-0.135 A2.475,2.475 0 0 0 28.6,22 z" fill="none" stroke="#ffffff" stroke-linecap="round" stroke-linejoin="round" stroke-width="2" stroke-opacity="1"/>
  </g></g></svg>