<svg xmlns="http://www.w3.org/2000/svg" width="35.002" height="25.19"><rect id="backgroundrect" width="100%" height="100%" x="0" y="0" fill="none" stroke="none"/>
  
<g class="currentLayer" style=""><title>Layer 1</title><g id="Icon_feather-youtube" data-name="Icon feather-youtube" class="selected" stroke="#ffffff" stroke-opacity="1">
    <path id="Path_2183" data-name="Path 2183" d="M33.311000046730044,4.630000000000001 a4.17,4.17 0 0 0 -2.91,-3 C27.821000046730042,1 17.50100004673004,1 17.50100004673004,1 S7.181000046730041,1 4.601000046730041,1.6900000000000004 a4.17,4.17 0 0 0 -2.91,3 a43.5,43.5 0 0 0 -0.6900000000000004,7.9350000000000005 a43.5,43.5 0 0 0 0.6900000000000004,7.995 A4.17,4.17 0 0 0 4.601000046730041,23.5 c2.58,0.6900000000000004 12.9,0.6900000000000004 12.9,0.6900000000000004 s10.32,0 12.9,-0.6900000000000004 a4.17,4.17 0 0 0 2.91,-3 a43.5,43.5 0 0 0 0.6900000000000004,-7.875 a43.5,43.5 0 0 0 -0.6900000000000004,-8 z" fill="none" stroke="#ffffff" stroke-linecap="round" stroke-linejoin="round" stroke-width="2" stroke-opacity="1"/>
    <path id="Path_2184" data-name="Path 2184" d="M14.126000046730042,17.53 l8.625,-4.905 l-8.625,-4.9 z" fill="none" stroke="#ffffff" stroke-linecap="round" stroke-linejoin="round" stroke-width="2" stroke-opacity="1"/>
  </g></g></svg>