<svg xmlns="http://www.w3.org/2000/svg" width="23.95" height="21.289" viewBox="0 0 23.95 21.289">
  <path id="Icon_awesome-file-signature" data-name="Icon awesome-file-signature" d="M9.071,17.636a.461.461,0,0,0-.423-.271.453.453,0,0,0-.417.257l-.319.638a.665.665,0,0,1-1.226-.087l-.7-2.1L5.546,17.4a1.8,1.8,0,0,1-1.7,1.228H3.326a.665.665,0,0,1,0-1.331h.515a.466.466,0,0,0,.442-.319l.756-2.272a1,1,0,0,1,1.894,0l.577,1.731a1.866,1.866,0,0,1,2.744.589.472.472,0,0,0,.389.26V13.873l5.322-5.284V6.653H10.312a1,1,0,0,1-1-1V0H1A1,1,0,0,0,0,1V20.291a1,1,0,0,0,1,1H14.969a1,1,0,0,0,1-1V18.628l-5.322,0A1.785,1.785,0,0,1,9.071,17.636Zm6.9-12.567a1,1,0,0,0-.291-.7L11.6.291A1,1,0,0,0,10.9,0h-.254V5.322h5.322Zm-3.992,9.358V17.3h2.869l6.723-6.768L18.744,7.706l-6.769,6.72ZM23.64,6.958,22.315,5.632a1.059,1.059,0,0,0-1.5,0L19.684,6.765l2.822,2.822L23.64,8.455A1.058,1.058,0,0,0,23.64,6.958Z" fill="#18a05f"/>
</svg>
