<svg xmlns="http://www.w3.org/2000/svg" width="16" height="16" style=""><rect id="backgroundrect" width="100%" height="100%" x="0" y="0" fill="none" stroke="none"/>
  
<g class="currentLayer" style=""><title>Layer 1</title><path id="Icon_awesome-phone-alt" data-name="Icon awesome-phone-alt" d="M15.544,11.307 l-3.5,-1.5 a0.7500000000000001,0.7500000000000001 0 0 0 -0.8750000000000001,0.21600000000000003 l-1.55,1.8940000000000001 A11.583,11.583 0 0 1 4.081,6.3790000000000004 l1.8940000000000001,-1.55 a0.7480000000000001,0.7480000000000001 0 0 0 0.21600000000000003,-0.8750000000000001 l-1.5,-3.5 A0.7550000000000001,0.7550000000000001 0 0 0 3.831,0.019000000000000003 L0.5810000000000001,0.7690000000000001 A0.7500000000000001,0.7500000000000001 0 0 0 0,1.5 A14.5,14.5 0 0 0 14.5,16 a0.7500000000000001,0.7500000000000001 0 0 0 0.7310000000000001,-0.5810000000000001 l0.7500000000000001,-3.25 a0.7590000000000001,0.7590000000000001 0 0 0 -0.43800000000000006,-0.8630000000000001 z" fill="#18a05f" class="selected" fill-opacity="1"/></g></svg>